<?xml version="1.0" encoding="utf-8"?>
<!-- Generator: Adobe Illustrator 27.5.0, SVG Export Plug-In . SVG Version: 6.00 Build 0)  -->
<svg version="1.1" xmlns="http://www.w3.org/2000/svg" xmlns:xlink="http://www.w3.org/1999/xlink" x="0px" y="0px"
	 viewBox="0 0 500 500" style="enable-background:new 0 0 500 500;" xml:space="preserve">
<g id="BACKGROUND">
	<rect style="fill:#FFFFFF;" width="500" height="500"/>
</g>
<g id="OBJECTS">
	<g>
		<g>
			<g>
				<defs>
					<path id="SVGID_1_" d="M309.365,297.988H190.635c-12.288,0-22.25-9.962-22.25-22.25V157.009c0-12.288,9.962-22.25,22.25-22.25
						h118.729c12.288,0,22.25,9.962,22.25,22.25v118.729C331.615,288.027,321.653,297.988,309.365,297.988z"/>
				</defs>
				<clipPath id="SVGID_00000161589511165819693610000018138227179845365918_">
					<use xlink:href="#SVGID_1_"  style="overflow:visible;"/>
				</clipPath>
				<path style="clip-path:url(#SVGID_00000161589511165819693610000018138227179845365918_);fill:#CFE5FA;" d="M309.365,297.988
					H190.635c-12.288,0-22.25-9.962-22.25-22.25V157.009c0-12.288,9.962-22.25,22.25-22.25h118.729
					c12.288,0,22.25,9.962,22.25,22.25v118.729C331.615,288.027,321.653,297.988,309.365,297.988z"/>
				<path style="clip-path:url(#SVGID_00000161589511165819693610000018138227179845365918_);fill:#EF3E38;" d="M303.57,134.759
					h-99.333c-4.413,11.337-6.861,23.656-6.861,36.553c0,55.691,45.146,100.837,100.837,100.837c11.711,0,22.946-2.018,33.402-5.689
					V162.804C331.615,147.315,319.059,134.759,303.57,134.759z"/>
				<path style="opacity:0.4;clip-path:url(#SVGID_00000161589511165819693610000018138227179845365918_);fill:#1A1A1A;" d="
					M278.703,240.513c0.167-13.89-2.508-16.285-11.189-16.839c-4.242-0.272-7.161,0.376-9.011,1.074
					c0.322-2.8,0.449-7.073-1.316-9.314c-0.775-0.983-1.85-1.524-3.111-1.563c-5.689-0.173-10.201,0.897-14.979,2.034
					c-4.905,1.168-9.978,2.376-16.915,2.376c-6.938,0-12.01-1.207-16.916-2.376c-4.778-1.138-9.289-2.207-14.979-2.034
					c-1.261,0.04-2.336,0.58-3.111,1.563c-1.764,2.24-1.638,6.513-1.316,9.313c-1.85-0.698-4.768-1.345-9.011-1.073
					c-8.68,0.554-11.355,2.949-11.188,16.839c0.119,9.847,0.065,20.18,0.027,27.725c-0.014,2.789-0.027,5.15-0.027,6.89
					c0,2.654,0.063,4.826,0.654,6.458v4.242c0,1.666,1.356,3.022,3.022,3.022h105.69c1.666,0,3.022-1.356,3.022-3.022v-4.242
					c0.591-1.632,0.653-3.804,0.653-6.458c0-1.74-0.012-4.101-0.027-6.89C278.637,260.693,278.584,250.36,278.703,240.513z"/>
				<path style="clip-path:url(#SVGID_00000161589511165819693610000018138227179845365918_);fill:#A4C5E0;" d="M174.895,287.905
					c5.145,6.161,12.881,10.084,21.535,10.084H303.57c8.654,0,16.391-3.922,21.535-10.084H174.895z"/>
				<path style="opacity:0.4;clip-path:url(#SVGID_00000161589511165819693610000018138227179845365918_);fill:#1A1A1A;" d="
					M232.749,149.411h-68.756c-4.41,0-7.999,3.589-7.999,7.999v37.782c0,4.41,3.589,7.999,7.999,7.999h68.756
					c4.41,0,7.999-3.589,7.999-7.999V157.41C240.748,153,237.16,149.411,232.749,149.411z"/>
				<path style="opacity:0.4;clip-path:url(#SVGID_00000161589511165819693610000018138227179845365918_);fill:#1A1A1A;" d="
					M317.022,184.454c0-10.545-7.329-19.77-17.523-22.186c-0.721-1.767-2.281-3.04-4.123-3.425v-26.605h-2.309v26.605
					c-1.843,0.385-3.403,1.658-4.123,3.425c-10.193,2.417-17.523,11.642-17.523,22.186v1.154h17.442
					c0.663,1.943,2.485,3.35,4.653,3.35c2.168,0,3.989-1.407,4.653-3.35h18.854V184.454z"/>
				<g style="clip-path:url(#SVGID_00000161589511165819693610000018138227179845365918_);">
					<path style="fill:#F7941D;" d="M261.92,221.003c-4.495-0.29-7.531,0.441-9.284,1.102l-0.525,0.198l0.064-0.557
						c0.294-2.553,0.515-7.181-1.305-9.493c-0.746-0.947-1.783-1.467-2.997-1.505c-5.924-0.183-10.613,0.937-15.582,2.119
						c-5.149,1.226-10.474,2.495-17.777,2.495c-7.302,0-12.628-1.268-17.777-2.495c-4.964-1.182-9.648-2.305-15.582-2.119
						c-1.214,0.038-2.25,0.559-2.996,1.505c-1.821,2.311-1.599,6.94-1.305,9.493l0.064,0.557l-0.525-0.198
						c-1.483-0.559-3.882-1.166-7.307-1.166c-0.625,0-1.283,0.021-1.978,0.065c-8.975,0.573-11.558,2.909-11.385,17.272
						c0.124,10.307,0.068,21.118,0.028,29.012c-0.015,2.917-0.028,5.387-0.028,7.207c0,2.63,0.05,4.946,0.663,6.64l0.02,0.116v4.438
						c0,1.555,1.265,2.82,2.82,2.82h110.575c1.555,0,2.82-1.265,2.82-2.82l0.021-4.554c0.613-1.694,0.663-4.009,0.663-6.64
						c0-1.82-0.013-4.289-0.028-7.207c-0.041-7.886-0.096-18.686,0.028-29.012C273.479,223.912,270.895,221.576,261.92,221.003z"/>
					<path style="fill:#F7941D;" d="M156.407,281.25"/>
					<path style="fill:#CC720E;" d="M261.92,221.003c-4.495-0.29-7.531,0.441-9.284,1.102l-0.525,0.198l0.064-0.557
						c0.294-2.553,0.515-7.181-1.305-9.493c-0.746-0.947-1.783-1.467-2.997-1.505c-5.924-0.183-10.613,0.937-15.582,2.119
						c-5.149,1.226-10.474,2.495-17.777,2.495c-7.302,0-12.628-1.268-17.777-2.495c-3.82-0.91-7.48-1.778-11.665-2.048
						c5.709,3.975,17.185,10.548,30.126,10.068c18.458-0.684,18.913,8.659,18.913,14.812c0,6.152,0,8.431,0,8.431
						s-23.47-4.864-50.018,6.227c0,0,27.06-4.917,42.526-2.353c15.467,2.563,19.739,4.187,19.739,4.187s-0.342-16.407,0.171-21.363
						c0.228-2.208,2.085-4.228,4.074-5.791c2.523-0.483,10.396-1.085,10.396,10.206c0,11.208,0,42.996,0,53.265h8.802
						c1.555,0,2.82-1.265,2.82-2.82l0.021-4.554c0.613-1.694,0.663-4.009,0.663-6.64c0-1.82-0.013-4.289-0.028-7.207
						c-0.041-7.886-0.096-18.686,0.028-29.012C273.479,223.912,270.895,221.576,261.92,221.003z"/>
					<path style="fill:#CC720E;" d="M184.663,256.891c0,0,2.572-4.557,21.363-6.324c18.791-1.766,33.668,2.393,43.239,4.785
						l-2.735-3.76c0,0-20.054-6.11-37.941-4.615c-17.887,1.496-26.319,5.469-26.319,5.469l-5.64,6.323L184.663,256.891z"/>
					<path style="fill:#CC720E;" d="M175.605,266.632c0,0,17.603-3.418,38.966-3.418s21.534,11.963,21.534,11.963l-59.816,2.905
						l0.342,4.614l76.394-0.171l0.855-22.388c0,0-17.261-4.614-41.359-4.614c-24.098,0-37.086,5.469-37.086,5.469L175.605,266.632z"
						/>
					<path style="fill:#CC720E;" d="M156.806,282.697l16.236,1.196l5.298-1.196h73.318l4.273,1.709l15.723-2.051v4.102
						c0,0-0.513,0.855-6.323,0.855c-5.811,0-107.157,0-107.157,0l-0.684-1.196L156.806,282.697z"/>
					<path style="fill:#CC720E;" d="M166.775,283.493l8.753-0.42l0.63-5.672l-0.63-17.436l4.202-6.092l2.541-1.425v-21.264
						l-2.331-6.092l-9.453-3.151h-7.983l-2.731,2.311c0,0,8.823-1.05,8.823,5.882c0,6.932,0,52.29,0,52.29L166.775,283.493z"/>
					<path style="fill:#F7941D;" d="M160.623,222.293"/>
					<path style="fill:#1A1A1A;" d="M261.942,220.662c-4.438-0.284-7.492,0.393-9.427,1.124c0.337-2.929,0.47-7.4-1.376-9.744
						c-0.811-1.029-1.935-1.594-3.255-1.636c-5.952-0.182-10.673,0.939-15.672,2.128c-5.132,1.222-10.439,2.485-17.697,2.485
						c-7.259,0-12.565-1.263-17.698-2.485c-4.999-1.19-9.718-2.309-15.671-2.128c-1.319,0.041-2.444,0.607-3.255,1.636
						c-1.846,2.344-1.714,6.814-1.376,9.743c-1.935-0.73-4.988-1.407-9.428-1.123c-9.081,0.579-11.88,3.085-11.705,17.617
						c0.124,10.302,0.068,21.113,0.028,29.006c-0.015,2.918-0.028,5.388-0.028,7.209c0,2.777,0.066,5.049,0.684,6.756v4.438
						c0,1.743,1.418,3.162,3.162,3.162h110.575c1.743,0,3.162-1.419,3.162-3.162v-4.438c0.618-1.708,0.684-3.979,0.684-6.756
						c0-1.821-0.013-4.291-0.028-7.209c-0.041-7.894-0.096-18.704,0.028-29.006C273.822,223.747,271.023,221.241,261.942,220.662z
						 M180.04,213.732c0.31-0.395,0.678-0.577,1.191-0.594c5.586-0.176,10.136,0.909,14.953,2.056
						c5.285,1.258,10.752,2.56,18.331,2.56c7.579,0,13.045-1.301,18.331-2.56c4.817-1.146,9.363-2.232,14.953-2.056
						c0.513,0.016,0.88,0.199,1.191,0.594c1.386,1.758,1.076,6.684,0.518,9.727c-1.305,1.033-4.572,4.249-4.572,10.53v16.367
						c-0.392-0.128-0.843-0.272-1.346-0.427c-0.052-0.016-0.103-0.032-0.156-0.048c-0.134-0.041-0.273-0.083-0.414-0.125
						c-0.074-0.022-0.149-0.045-0.225-0.067c-0.143-0.043-0.287-0.085-0.437-0.129c-0.078-0.023-0.159-0.046-0.238-0.069
						c-0.328-0.095-0.67-0.192-1.028-0.292c-0.041-0.011-0.08-0.022-0.121-0.034c-0.143-0.039-0.291-0.079-0.438-0.119
						c-0.127-0.035-0.254-0.069-0.384-0.104c-0.145-0.039-0.293-0.078-0.442-0.117c-0.142-0.037-0.286-0.075-0.431-0.112
						c-0.149-0.038-0.299-0.077-0.452-0.116c-0.163-0.041-0.33-0.083-0.497-0.124c-0.142-0.035-0.281-0.07-0.426-0.105
						c-0.297-0.072-0.601-0.145-0.91-0.217c-0.127-0.03-0.258-0.059-0.388-0.089c-0.208-0.048-0.416-0.095-0.629-0.143
						c-0.148-0.033-0.299-0.066-0.45-0.099c-0.205-0.045-0.411-0.09-0.62-0.134c-0.152-0.033-0.305-0.065-0.459-0.097
						c-0.231-0.048-0.465-0.096-0.701-0.143c-0.136-0.027-0.271-0.055-0.409-0.083c-0.363-0.072-0.731-0.143-1.105-0.213
						c-0.109-0.02-0.221-0.04-0.331-0.06c-0.281-0.052-0.564-0.103-0.851-0.153c-0.151-0.026-0.304-0.052-0.456-0.078
						c-0.256-0.044-0.514-0.087-0.775-0.129c-0.159-0.026-0.318-0.052-0.478-0.077c-0.279-0.044-0.561-0.087-0.844-0.13
						c-0.139-0.021-0.277-0.042-0.417-0.063c-0.417-0.061-0.839-0.12-1.265-0.177c-0.085-0.011-0.171-0.022-0.257-0.033
						c-0.351-0.046-0.705-0.09-1.062-0.133c-0.151-0.018-0.304-0.035-0.456-0.053c-0.299-0.035-0.6-0.068-0.904-0.1
						c-0.164-0.017-0.328-0.035-0.493-0.051c-0.314-0.032-0.631-0.062-0.949-0.09c-0.146-0.013-0.291-0.027-0.438-0.04
						c-0.461-0.04-0.924-0.077-1.393-0.111c-0.043-0.003-0.086-0.005-0.129-0.008c-0.426-0.03-0.855-0.057-1.287-0.081
						c-0.154-0.009-0.31-0.016-0.465-0.024c-0.33-0.017-0.661-0.032-0.993-0.045c-0.17-0.007-0.34-0.013-0.511-0.019
						c-0.34-0.012-0.681-0.021-1.024-0.029c-0.152-0.003-0.303-0.008-0.456-0.01c-0.492-0.009-0.986-0.014-1.483-0.014
						c-0.497,0-0.991,0.005-1.483,0.014c-0.153,0.003-0.304,0.007-0.456,0.01c-0.343,0.008-0.684,0.017-1.024,0.029
						c-0.171,0.006-0.341,0.012-0.511,0.019c-0.333,0.013-0.663,0.029-0.993,0.045c-0.155,0.008-0.311,0.015-0.465,0.024
						c-0.432,0.024-0.861,0.051-1.287,0.081c-0.043,0.003-0.086,0.005-0.129,0.008c-0.468,0.033-0.932,0.071-1.393,0.111
						c-0.147,0.013-0.292,0.027-0.438,0.04c-0.318,0.029-0.635,0.059-0.949,0.09c-0.165,0.017-0.329,0.034-0.493,0.051
						c-0.303,0.032-0.604,0.065-0.903,0.1c-0.152,0.018-0.305,0.035-0.456,0.053c-0.358,0.043-0.712,0.088-1.064,0.133
						c-0.084,0.011-0.17,0.021-0.254,0.033c-0.427,0.057-0.848,0.116-1.266,0.177c-0.14,0.02-0.278,0.042-0.417,0.063
						c-0.283,0.042-0.565,0.085-0.844,0.13c-0.16,0.025-0.319,0.051-0.478,0.077c-0.26,0.043-0.518,0.086-0.775,0.129
						c-0.153,0.026-0.305,0.052-0.456,0.078c-0.287,0.05-0.57,0.102-0.851,0.153c-0.11,0.02-0.222,0.04-0.331,0.06
						c-0.374,0.07-0.742,0.141-1.105,0.213c-0.138,0.027-0.273,0.055-0.409,0.083c-0.236,0.048-0.47,0.095-0.701,0.143
						c-0.155,0.032-0.307,0.065-0.459,0.097c-0.209,0.045-0.416,0.089-0.62,0.134c-0.151,0.033-0.301,0.066-0.45,0.099
						c-0.213,0.048-0.421,0.095-0.629,0.143c-0.129,0.03-0.261,0.059-0.388,0.089c-0.309,0.072-0.613,0.145-0.91,0.217
						c-0.145,0.035-0.284,0.07-0.426,0.105c-0.167,0.041-0.334,0.083-0.497,0.124c-0.153,0.039-0.303,0.077-0.452,0.116
						c-0.146,0.038-0.289,0.075-0.431,0.112c-0.149,0.039-0.297,0.078-0.442,0.117c-0.131,0.035-0.257,0.069-0.385,0.104
						c-0.147,0.04-0.295,0.08-0.438,0.119c-0.041,0.011-0.08,0.023-0.121,0.034c-0.358,0.1-0.7,0.197-1.028,0.292
						c-0.079,0.023-0.16,0.046-0.238,0.069c-0.15,0.044-0.294,0.086-0.437,0.129c-0.076,0.023-0.151,0.045-0.225,0.067
						c-0.141,0.042-0.279,0.084-0.413,0.125c-0.054,0.017-0.106,0.033-0.16,0.049c-0.502,0.155-0.952,0.298-1.343,0.426V233.99
						c0-6.281-3.266-9.497-4.572-10.53C178.964,220.416,178.654,215.491,180.04,213.732z M214.515,254.156
						c-17.9,0-30.504,2.385-36.046,3.686c0.016-0.02,0.031-0.04,0.047-0.059c0.069-0.083,0.142-0.165,0.213-0.248
						c0.074-0.086,0.147-0.172,0.224-0.256c0.075-0.083,0.153-0.164,0.23-0.247c0.077-0.082,0.154-0.165,0.233-0.247
						c0.08-0.082,0.162-0.162,0.244-0.243c0.08-0.079,0.159-0.158,0.239-0.236c0.083-0.08,0.167-0.158,0.251-0.236
						c0.081-0.075,0.161-0.151,0.242-0.225c0.085-0.077,0.169-0.151,0.254-0.226c0.08-0.071,0.161-0.143,0.241-0.212
						c0.083-0.072,0.165-0.141,0.248-0.211c0.081-0.068,0.162-0.137,0.243-0.204c0.078-0.064,0.155-0.126,0.231-0.188
						c0.082-0.066,0.164-0.133,0.244-0.196c0.072-0.057,0.141-0.111,0.211-0.165c0.081-0.063,0.163-0.126,0.241-0.186
						c0.064-0.049,0.126-0.095,0.188-0.141c0.077-0.058,0.154-0.115,0.228-0.169c0.058-0.042,0.113-0.082,0.168-0.121
						c0.072-0.052,0.143-0.102,0.21-0.149c0.047-0.033,0.092-0.064,0.136-0.094c0.041-0.028,0.079-0.054,0.118-0.08
						c0.006-0.002,0.009-0.003,0.016-0.006c0.025-0.009,0.059-0.021,0.09-0.032c0.032-0.011,0.066-0.023,0.104-0.037
						c0.038-0.013,0.082-0.029,0.126-0.044c0.047-0.016,0.096-0.034,0.15-0.052c0.046-0.016,0.097-0.033,0.148-0.051
						c0.062-0.021,0.128-0.043,0.197-0.067c0.057-0.019,0.116-0.039,0.177-0.059c0.075-0.025,0.155-0.052,0.238-0.079
						c0.066-0.022,0.134-0.044,0.204-0.067c0.089-0.029,0.184-0.06,0.28-0.09c0.076-0.024,0.152-0.049,0.232-0.074
						c0.1-0.032,0.206-0.065,0.312-0.098c0.087-0.027,0.174-0.055,0.265-0.083c0.111-0.034,0.228-0.07,0.345-0.106
						c0.096-0.029,0.192-0.059,0.292-0.089c0.126-0.038,0.26-0.078,0.393-0.117c0.1-0.029,0.198-0.059,0.301-0.089
						c0.144-0.042,0.296-0.086,0.447-0.129c0.103-0.03,0.203-0.059,0.309-0.089c0.164-0.046,0.335-0.094,0.506-0.142
						c0.103-0.029,0.202-0.057,0.307-0.086c0.191-0.053,0.392-0.106,0.591-0.16c0.093-0.025,0.181-0.049,0.276-0.074
						c0.287-0.076,0.583-0.153,0.887-0.231c0.011-0.003,0.022-0.006,0.033-0.008c0.317-0.081,0.642-0.162,0.975-0.244
						c0.082-0.02,0.168-0.04,0.251-0.06c0.252-0.061,0.505-0.122,0.765-0.183c0.127-0.03,0.258-0.059,0.387-0.089
						c0.223-0.051,0.445-0.103,0.674-0.154c0.147-0.033,0.299-0.066,0.449-0.099c0.219-0.048,0.438-0.096,0.663-0.144
						c0.158-0.034,0.32-0.067,0.481-0.1c0.221-0.046,0.442-0.092,0.667-0.137c0.172-0.035,0.348-0.069,0.523-0.104
						c0.221-0.043,0.442-0.087,0.667-0.13c0.181-0.034,0.365-0.068,0.549-0.102c0.226-0.042,0.453-0.083,0.683-0.124
						c0.188-0.033,0.378-0.066,0.569-0.099c0.231-0.04,0.462-0.079,0.697-0.118c0.196-0.032,0.393-0.064,0.591-0.096
						c0.235-0.038,0.472-0.074,0.71-0.111c0.202-0.031,0.405-0.061,0.609-0.091c0.24-0.035,0.481-0.069,0.724-0.103
						c0.207-0.029,0.416-0.057,0.625-0.085c0.247-0.033,0.496-0.064,0.746-0.095c0.209-0.026,0.419-0.052,0.63-0.077
						c0.255-0.03,0.512-0.058,0.77-0.087c0.212-0.023,0.424-0.046,0.638-0.068c0.259-0.027,0.521-0.051,0.782-0.076
						c0.216-0.02,0.432-0.041,0.65-0.06c0.267-0.023,0.537-0.044,0.807-0.066c0.215-0.017,0.43-0.035,0.647-0.05
						c0.278-0.02,0.559-0.037,0.839-0.054c0.212-0.013,0.423-0.027,0.636-0.039c0.296-0.016,0.594-0.029,0.892-0.042
						c0.201-0.009,0.401-0.019,0.603-0.027c0.329-0.012,0.662-0.02,0.994-0.029c0.173-0.004,0.345-0.011,0.519-0.014
						c0.506-0.01,1.015-0.015,1.526-0.015c0.511,0,1.02,0.005,1.526,0.015c0.174,0.003,0.346,0.01,0.519,0.014
						c0.332,0.008,0.664,0.016,0.994,0.029c0.202,0.007,0.402,0.018,0.603,0.027c0.298,0.013,0.596,0.026,0.892,0.042
						c0.213,0.012,0.424,0.026,0.636,0.039c0.28,0.017,0.561,0.034,0.84,0.054c0.217,0.015,0.431,0.033,0.646,0.05
						c0.27,0.021,0.54,0.042,0.807,0.066c0.218,0.019,0.434,0.04,0.65,0.06c0.262,0.025,0.523,0.049,0.782,0.076
						c0.214,0.022,0.426,0.045,0.638,0.068c0.257,0.028,0.515,0.057,0.77,0.087c0.211,0.025,0.42,0.05,0.629,0.076
						c0.25,0.031,0.499,0.063,0.747,0.095c0.209,0.028,0.417,0.056,0.624,0.085c0.243,0.034,0.485,0.068,0.725,0.103
						c0.204,0.03,0.407,0.06,0.609,0.091c0.238,0.036,0.475,0.073,0.71,0.111c0.198,0.032,0.396,0.063,0.592,0.096
						c0.234,0.039,0.466,0.078,0.697,0.118c0.19,0.033,0.381,0.066,0.569,0.099c0.23,0.041,0.457,0.083,0.683,0.124
						c0.184,0.034,0.367,0.068,0.548,0.102c0.225,0.043,0.446,0.086,0.667,0.13c0.175,0.034,0.351,0.069,0.523,0.104
						c0.225,0.045,0.446,0.091,0.667,0.137c0.161,0.034,0.323,0.067,0.481,0.1c0.225,0.048,0.443,0.096,0.663,0.144
						c0.15,0.033,0.302,0.066,0.449,0.099c0.229,0.051,0.451,0.103,0.674,0.154c0.129,0.03,0.26,0.059,0.387,0.089
						c0.26,0.061,0.513,0.122,0.765,0.183c0.083,0.02,0.169,0.04,0.251,0.06c0.333,0.082,0.659,0.163,0.975,0.244
						c0.011,0.003,0.022,0.006,0.033,0.008c0.303,0.078,0.599,0.155,0.887,0.231c0.094,0.025,0.183,0.049,0.276,0.074
						c0.2,0.054,0.4,0.107,0.591,0.16c0.105,0.029,0.205,0.057,0.307,0.086c0.171,0.048,0.342,0.095,0.506,0.142
						c0.106,0.03,0.206,0.059,0.309,0.089c0.151,0.043,0.303,0.087,0.447,0.129c0.102,0.03,0.199,0.059,0.298,0.088
						c0.135,0.04,0.27,0.08,0.398,0.119c0.099,0.03,0.194,0.059,0.289,0.088c0.118,0.036,0.235,0.072,0.347,0.106
						c0.091,0.028,0.178,0.055,0.265,0.083c0.106,0.033,0.212,0.066,0.312,0.098c0.08,0.025,0.156,0.05,0.232,0.074
						c0.096,0.031,0.19,0.061,0.28,0.09c0.07,0.023,0.138,0.045,0.204,0.067c0.082,0.027,0.162,0.054,0.238,0.079
						c0.061,0.02,0.121,0.04,0.177,0.059c0.069,0.023,0.135,0.046,0.197,0.067c0.051,0.017,0.102,0.035,0.148,0.051
						c0.054,0.018,0.103,0.036,0.15,0.052c0.044,0.015,0.088,0.031,0.126,0.044c0.038,0.014,0.072,0.026,0.104,0.037
						c0.032,0.011,0.065,0.023,0.09,0.032c0.006,0.002,0.01,0.004,0.016,0.006c0.038,0.026,0.076,0.051,0.118,0.08
						c0.044,0.03,0.089,0.061,0.136,0.094c0.067,0.047,0.138,0.097,0.21,0.149c0.055,0.039,0.111,0.079,0.168,0.121
						c0.074,0.054,0.151,0.111,0.228,0.169c0.062,0.046,0.124,0.093,0.188,0.141c0.078,0.06,0.16,0.123,0.241,0.186
						c0.07,0.054,0.139,0.108,0.211,0.165c0.08,0.063,0.162,0.13,0.244,0.196c0.077,0.062,0.153,0.124,0.232,0.188
						c0.08,0.066,0.161,0.135,0.243,0.204c0.082,0.07,0.165,0.139,0.248,0.211c0.08,0.069,0.161,0.141,0.241,0.212
						c0.084,0.075,0.169,0.149,0.253,0.226c0.081,0.074,0.161,0.15,0.242,0.225c0.084,0.078,0.168,0.156,0.251,0.236
						c0.081,0.077,0.16,0.157,0.239,0.236c0.082,0.081,0.164,0.161,0.244,0.243c0.079,0.081,0.156,0.164,0.233,0.247
						c0.077,0.082,0.155,0.164,0.23,0.247c0.077,0.085,0.15,0.171,0.224,0.256c0.072,0.083,0.145,0.165,0.214,0.248
						c0.016,0.02,0.031,0.04,0.047,0.059C245.018,256.542,232.415,254.156,214.515,254.156z M252.129,261.058
						c0.002,0.015,0.004,0.029,0.006,0.045c0.024,0.182,0.045,0.38,0.063,0.592c0.003,0.031,0.005,0.064,0.008,0.096
						c0.018,0.219,0.033,0.451,0.045,0.697c0.001,0.029,0.003,0.059,0.004,0.088c0.012,0.259,0.021,0.529,0.028,0.813
						c0,0.008,0,0.016,0,0.024c0.007,0.292,0.01,0.598,0.011,0.913c0,0.015,0,0.029,0,0.044c0.001,0.31-0.001,0.631-0.004,0.959
						c0,0.032,0,0.064-0.001,0.096c-0.004,0.319-0.01,0.646-0.017,0.979c-0.001,0.046-0.002,0.091-0.003,0.137
						c-0.008,0.33-0.017,0.665-0.028,1.004c-0.001,0.047-0.003,0.095-0.005,0.142c-0.011,0.342-0.024,0.688-0.038,1.036
						c-0.002,0.042-0.003,0.085-0.005,0.128c-0.015,0.358-0.03,0.719-0.047,1.08c-0.001,0.02-0.002,0.04-0.003,0.059
						c-0.017,0.373-0.036,0.747-0.055,1.119c0,0.009-0.001,0.019-0.001,0.028c-0.019,0.371-0.039,0.74-0.06,1.106
						c-0.002,0.031-0.003,0.062-0.005,0.093c-0.019,0.347-0.039,0.69-0.059,1.029c-0.003,0.056-0.007,0.113-0.01,0.169
						c-0.02,0.326-0.039,0.647-0.059,0.963c-0.003,0.052-0.007,0.104-0.01,0.155c-0.02,0.315-0.039,0.624-0.059,0.924
						c-0.004,0.062-0.008,0.122-0.012,0.183c-0.018,0.28-0.036,0.555-0.053,0.819c-0.006,0.09-0.012,0.177-0.018,0.266
						c-0.016,0.248-0.033,0.495-0.048,0.726c-0.031,0.473-0.06,0.909-0.087,1.327c-0.01,0.155-0.02,0.308-0.029,0.455
						c-0.008,0.119-0.015,0.239-0.023,0.353c-0.013,0.205-0.025,0.4-0.036,0.588c-0.003,0.053-0.007,0.11-0.01,0.162
						c-0.015,0.253-0.028,0.487-0.039,0.703l0,0h-73.912c-0.011-0.216-0.024-0.451-0.039-0.703c-0.003-0.051-0.007-0.109-0.01-0.162
						c-0.011-0.187-0.023-0.382-0.036-0.588c-0.007-0.114-0.015-0.234-0.023-0.353c-0.01-0.155-0.02-0.316-0.031-0.48
						c-0.009-0.146-0.019-0.293-0.029-0.446c-0.005-0.068-0.009-0.141-0.014-0.21c-0.014-0.213-0.028-0.421-0.043-0.646
						c-0.016-0.241-0.033-0.497-0.05-0.756c-0.005-0.075-0.01-0.148-0.015-0.224c-0.018-0.277-0.037-0.564-0.056-0.858
						c-0.003-0.048-0.006-0.095-0.009-0.143c-0.02-0.312-0.04-0.632-0.061-0.958c-0.002-0.039-0.005-0.077-0.007-0.116
						c-0.021-0.332-0.041-0.671-0.062-1.015c-0.002-0.035-0.004-0.071-0.006-0.106c-0.021-0.353-0.042-0.711-0.062-1.073
						c-0.001-0.019-0.002-0.038-0.003-0.057c-0.042-0.758-0.083-1.53-0.118-2.3c0-0.009-0.001-0.018-0.001-0.026
						c-0.017-0.369-0.033-0.737-0.048-1.103c-0.001-0.036-0.003-0.071-0.004-0.106c-0.014-0.354-0.027-0.705-0.038-1.052
						c-0.001-0.043-0.003-0.086-0.004-0.128c-0.011-0.343-0.02-0.681-0.028-1.014c-0.001-0.043-0.002-0.086-0.003-0.129
						c-0.007-0.334-0.013-0.663-0.017-0.984c0-0.031-0.001-0.062-0.001-0.093c-0.003-0.33-0.005-0.653-0.004-0.964
						c0-0.012,0-0.023,0-0.034c0.001-0.314,0.005-0.618,0.011-0.91c0-0.012,0-0.025,0.001-0.037
						c0.006-0.282,0.016-0.549,0.028-0.806c0.001-0.031,0.003-0.063,0.004-0.094c0.012-0.244,0.027-0.474,0.044-0.691
						c0.003-0.034,0.005-0.069,0.008-0.102c0.018-0.21,0.039-0.406,0.063-0.587c0.002-0.016,0.004-0.032,0.007-0.048
						c3.325-0.886,17.03-4.167,37.614-4.167C235.066,256.891,248.799,260.173,252.129,261.058z M158.579,280.207
						c-0.403-1.15-0.462-2.935-0.462-5.714c0-1.817,0.013-4.283,0.028-7.195c0.041-7.904,0.096-18.727-0.028-29.054
						c-0.164-13.611,2.067-14.403,9.145-14.855c5.875-0.378,8.869,1.09,9.802,1.668l0.009,0.039l0.487,0.31
						c0.155,0.099,3.801,2.49,3.801,8.583l0.001,17.567c-1.558,1.104-5.396,4.065-6.705,7.304l-0.056,0.017l-0.199,0.729
						c-0.743,2.725-0.327,10.139,0.206,18.146c0.134,2.019,0.249,3.762,0.253,4.52l-0.008,0.025v0.014
						c-0.738,0.49-4.088,0.262-6.329,0.11c-0.649-0.044-1.308-0.087-1.97-0.125c-1.095-0.064-2.202-0.113-3.309-0.113
						c-2.628,0-3.661-0.471-4.171-1.069c-0.032-0.038-0.062-0.078-0.091-0.118c-0.124-0.17-0.214-0.348-0.291-0.527L158.579,280.207
						z M270.229,285.688c0,0.236-0.192,0.427-0.427,0.427H159.227c-0.236,0-0.427-0.192-0.427-0.427v-1.481
						c1.336,0.592,2.924,0.712,4.444,0.712c1.07,0,2.159,0.05,3.241,0.114c0.623,0.037,1.244,0.077,1.857,0.119
						c0.509,0.035,0.993,0.067,1.466,0.096c0.008,0,0.016,0.001,0.024,0.001c0.962,0.06,1.854,0.103,2.657,0.103
						c1.291,0,2.365-0.114,3.206-0.435c0.1-0.036,0.195-0.075,0.288-0.117c0.011-0.005,0.023-0.01,0.034-0.016
						c0.473-0.216,0.86-0.503,1.128-0.892h74.768c0.012,0.016,0.029,0.03,0.041,0.046l0,0c0.055,0.073,0.114,0.146,0.18,0.214
						l0.006-0.006c0.037,0.039,0.066,0.083,0.106,0.12c0.021,0.02,0.047,0.035,0.068,0.054c0.05,0.045,0.1,0.09,0.154,0.132
						l0.005-0.006c0.076,0.057,0.153,0.113,0.235,0.164c0.045,0.028,0.088,0.057,0.136,0.084c0.024,0.013,0.051,0.024,0.076,0.036
						c0.063,0.033,0.126,0.065,0.193,0.095c0.04,0.018,0.079,0.038,0.121,0.055l0.002-0.005c0.046,0.019,0.091,0.038,0.138,0.056
						l0,0.001c0.008,0.003,0.017,0.006,0.026,0.009c0.057,0.021,0.115,0.041,0.173,0.06c0.041,0.013,0.085,0.024,0.127,0.036
						c0.024,0.007,0.048,0.014,0.072,0.02l-0.001,0.003c0.032,0.009,0.065,0.016,0.097,0.025c0.101,0.026,0.206,0.05,0.313,0.072
						l0,0.001c0.081,0.016,0.163,0.031,0.248,0.045c0.031,0.005,0.059,0.012,0.09,0.017c0.102,0.016,0.209,0.027,0.315,0.04
						c0.019,0.002,0.036,0.005,0.055,0.007l0-0.001c0.167,0.019,0.339,0.035,0.517,0.047c0.066,0.004,0.133,0.009,0.201,0.012
						c0.299,0.016,0.607,0.026,0.933,0.026c0.016,0,0.034-0.001,0.05-0.001c0.067,0,0.139-0.003,0.207-0.004
						c0.024,0,0.048-0.001,0.072-0.001v0c0.007,0,0.013,0,0.019-0.001c0.011,0,0.023,0,0.034-0.001
						c0.262-0.004,0.529-0.01,0.807-0.021c0.132-0.005,0.269-0.011,0.404-0.018c0.286-0.014,0.581-0.029,0.883-0.047
						c0.133-0.008,0.266-0.015,0.402-0.024c0.411-0.026,0.832-0.054,1.269-0.084c1.678-0.115,3.413-0.233,5.098-0.233
						c1.519,0,3.108-0.12,4.444-0.712V285.688z M270.913,238.246c-0.124,10.326-0.069,21.15-0.028,29.054
						c0.015,2.912,0.028,5.378,0.028,7.195c0,2.78-0.06,4.565-0.463,5.715l-0.111,0.26c-0.075,0.177-0.164,0.352-0.285,0.52
						c-0.032,0.043-0.064,0.086-0.098,0.126c-0.51,0.598-1.543,1.069-4.17,1.069c-1.779,0-3.561,0.121-5.285,0.239
						c-0.286,0.02-0.591,0.04-0.905,0.061c-0.04,0.003-0.082,0.005-0.123,0.008c-0.113,0.007-0.227,0.014-0.343,0.021
						c-0.103,0.006-0.207,0.012-0.31,0.018c-0.055,0.003-0.11,0.007-0.165,0.01c-0.113,0.006-0.226,0.012-0.34,0.017
						c-0.049,0.002-0.099,0.005-0.148,0.008c-0.118,0.006-0.237,0.01-0.355,0.015c-0.042,0.002-0.085,0.004-0.127,0.005
						c-0.12,0.005-0.239,0.008-0.357,0.012c-0.04,0.001-0.081,0.003-0.121,0.004c-0.115,0.003-0.228,0.005-0.341,0.007
						c-0.042,0.001-0.084,0.002-0.126,0.002c-0.11,0.001-0.216,0.001-0.322,0.001c-0.042,0-0.085,0-0.126,0
						c-0.031,0-0.06-0.001-0.091-0.002L256,282.607v0c-0.028-0.001-0.057-0.001-0.085-0.002l0-0.003
						c-0.096-0.003-0.19-0.008-0.282-0.014l0,0.005c-0.007,0-0.014,0-0.021-0.001c-0.023-0.001-0.047-0.002-0.07-0.004l0-0.006
						l-0.253-0.022l-0.001,0.01c-0.013-0.001-0.027-0.002-0.04-0.003c-0.018-0.002-0.035-0.003-0.052-0.005l0.001-0.011
						l-0.216-0.027l-0.002,0.014c-0.019-0.003-0.039-0.005-0.058-0.007c-0.011-0.001-0.021-0.003-0.032-0.005l0.003-0.016
						l-0.181-0.033l-0.004,0.018c-0.024-0.005-0.047-0.009-0.07-0.014c-0.004-0.001-0.008-0.002-0.013-0.003l0.004-0.019
						c-0.046-0.01-0.089-0.022-0.133-0.033l-0.005,0.019c-0.025-0.007-0.049-0.015-0.072-0.022l0.005-0.017l-0.098-0.034
						l-0.006,0.015c-0.007-0.003-0.016-0.006-0.023-0.009c-0.012-0.005-0.02-0.011-0.031-0.016l0.004-0.011l-0.077-0.037
						l-0.003,0.005c-0.006-0.004-0.012-0.008-0.018-0.012l0.001-0.003l-0.01-0.006c0-0.053,0.001-0.113,0.003-0.176
						c0.001-0.036,0.001-0.066,0.002-0.104c0.003-0.096,0.007-0.206,0.012-0.32c0.001-0.028,0.002-0.051,0.003-0.08
						c0.006-0.142,0.014-0.297,0.023-0.463c0-0.007,0.001-0.012,0.001-0.019c0.047-0.885,0.127-2.079,0.213-3.385
						c0.533-8.007,0.949-15.421,0.206-18.146l-0.199-0.729l-0.056-0.017c-1.308-3.238-5.146-6.199-6.704-7.304V233.99
						c0-6.093,3.646-8.484,3.793-8.577l0.502-0.308l0.012-0.056c0.921-0.574,3.892-2.033,9.792-1.657
						C268.846,223.843,271.077,224.635,270.913,238.246z"/>
				</g>
				<path style="clip-path:url(#SVGID_00000161589511165819693610000018138227179845365918_);fill:#1A1A1A;" d="M324.213,288.922
					c0.228-0.248,0.449-0.503,0.669-0.76c-3.98-0.079-7.961-0.154-11.941-0.245l-27.336-0.352
					c-18.224-0.201-36.448-0.191-54.672-0.289c-18.224,0.105-36.448,0.086-54.673,0.294l-1.621,0.021
					c0.538,0.663,1.106,1.299,1.7,1.91c18.198,0.207,36.396,0.188,54.593,0.293c18.224-0.099,36.448-0.089,54.672-0.289
					l27.336-0.352C316.698,289.066,320.456,288.996,324.213,288.922z"/>
				<g style="clip-path:url(#SVGID_00000161589511165819693610000018138227179845365918_);">
					<path style="fill:#F6FBFE;" d="M296.562,185.913c0,2.726-2.21,4.937-4.937,4.937c-2.726,0-4.937-2.21-4.937-4.937
						c0-2.726,2.21-4.937,4.937-4.937C294.352,180.976,296.562,183.186,296.562,185.913z"/>
					<g>
						<g>
							<path style="fill:#F7941D;" d="M296.724,165.146c-0.52-1.949-2.281-3.392-4.394-3.392c-2.113,0-3.873,1.443-4.394,3.392
								c-9.848,2.031-17.253,10.75-17.253,21.199h43.292C313.977,175.895,306.572,167.176,296.724,165.146z"/>
							<g>
								<g>
									<g>
										<path style="fill:#CC720E;" d="M301.254,166.64c4.38,3.961,7.142,9.678,7.142,16.049h-37.398
											c-0.202,1.189-0.314,2.409-0.314,3.656h43.292C313.977,177.575,308.752,170.041,301.254,166.64z"/>
									</g>
									<g>
										<path style="fill:#D3B418;" d="M292.331,161.753c-0.036,0-0.069,0.008-0.105,0.009c1.011,0.264,1.993,0.594,2.941,0.995
											C294.39,162.132,293.408,161.753,292.331,161.753z"/>
									</g>
								</g>
							</g>
							<path style="fill:#1A1A1A;" d="M297.608,164.159c-0.868-2.127-2.946-3.559-5.277-3.559c-2.333,0-4.41,1.432-5.277,3.559
								c-10.193,2.417-17.523,11.642-17.523,22.186v1.154h45.601v-1.154C315.132,175.8,307.802,166.575,297.608,164.159z
								 M271.872,185.19c0.521-9.188,7.214-17.042,16.299-18.915l0.698-0.144l0.184-0.689c0.398-1.493,1.746-2.534,3.279-2.534
								c1.531,0,2.879,1.043,3.279,2.534l0.184,0.689l0.698,0.144c9.085,1.873,15.778,9.727,16.299,18.915H271.872z"/>
						</g>
						<g>
							<rect x="291.176" y="134.128" style="fill:#1A1A1A;" width="2.309" height="27.625"/>
						</g>
					</g>
				</g>
				<g style="clip-path:url(#SVGID_00000161589511165819693610000018138227179845365918_);">
					<path style="fill:#F6FBFE;" d="M231.653,198.47h-71.919c-2.416,0-4.375-1.959-4.375-4.375V153.15
						c0-2.416,1.959-4.375,4.375-4.375h71.919c2.416,0,4.375,1.959,4.375,4.375v40.945
						C236.028,196.512,234.069,198.47,231.653,198.47z"/>
					<path style="fill:#1A1A1A;" d="M230.071,146.733h-68.756c-4.41,0-7.999,3.589-7.999,7.999v37.782
						c0,4.41,3.589,7.999,7.999,7.999h68.756c4.41,0,7.999-3.589,7.999-7.999v-37.782
						C238.07,150.322,234.481,146.733,230.071,146.733z M233.985,154.732v16.849h-36.25v-20.763h32.336
						C232.229,150.818,233.985,152.573,233.985,154.732z M161.315,150.818h32.336v20.763H157.4v-16.849
						C157.4,152.573,159.157,150.818,161.315,150.818z M157.4,192.514v-16.849h36.25v20.763h-32.336
						C159.157,196.428,157.4,194.672,157.4,192.514z M230.071,196.428h-32.336v-20.763h36.25v16.849
						C233.985,194.672,232.229,196.428,230.071,196.428z"/>
				</g>
			</g>
			<g>
				
					<text transform="matrix(1 0 0 1 134.2607 339.7814)" style="font-family:'OpenSans-Semibold'; font-size:38.8563px; letter-spacing:1;">FURNITURE</text>
				<text transform="matrix(1 0 0 1 156.1052 358.1759)" style="font-family:'OpenSans'; font-size:14.3407px; letter-spacing:2;">YOUR TAGLINE HERE</text>
				<g>
					<path style="fill:#1A1A1A;" d="M233.214,370.798c0,1.902-1.542,3.443-3.443,3.443c-1.902,0-3.443-1.542-3.443-3.443
						c0-1.902,1.542-3.443,3.443-3.443C231.672,367.355,233.214,368.896,233.214,370.798z"/>
					<path style="fill:#CFE5FA;" d="M246.7,370.798c0,1.902-1.542,3.443-3.443,3.443c-1.902,0-3.443-1.542-3.443-3.443
						c0-1.902,1.542-3.443,3.443-3.443C245.159,367.355,246.7,368.896,246.7,370.798z"/>
					<path style="fill:#F7941D;" d="M260.186,370.798c0,1.902-1.542,3.443-3.443,3.443c-1.902,0-3.443-1.542-3.443-3.443
						c0-1.902,1.542-3.443,3.443-3.443C258.645,367.355,260.186,368.896,260.186,370.798z"/>
					<path style="fill:#EF3E38;" d="M273.672,370.798c0,1.902-1.542,3.443-3.443,3.443c-1.902,0-3.443-1.542-3.443-3.443
						c0-1.902,1.542-3.443,3.443-3.443C272.131,367.355,273.672,368.896,273.672,370.798z"/>
				</g>
			</g>
		</g>
	</g>
</g>
</svg>
